const cueSet1 = [
  {
          "duration": 0.234375,
          "durationTicks": 5760,
          "midi": 63,
          "name": "D#4",
          "ticks": 0,
          "time": 0,
          "velocity": 0.9921259842519685
        },
        {
          "duration": 0.234375,
          "durationTicks": 5760,
          "midi": 63,
          "name": "D#4",
          "ticks": 7680,
          "time": 0.3125,
          "velocity": 0.9921259842519685
        },
        {
          "duration": 0.234375,
          "durationTicks": 5760,
          "midi": 63,
          "name": "D#4",
          "ticks": 15360,
          "time": 0.625,
          "velocity": 0.9921259842519685
        },
        {
          "duration": 0.078125,
          "durationTicks": 1920,
          "midi": 63,
          "name": "D#4",
          "ticks": 23040,
          "time": 0.9375,
          "velocity": 0.9921259842519685
        },
        {
          "duration": 0.15625,
          "durationTicks": 3840,
          "midi": 63,
          "name": "D#4",
          "ticks": 26880,
          "time": 1.09375,
          "velocity": 0.9921259842519685
        },
        {
          "duration": 0.234375,
          "durationTicks": 5760,
          "midi": 63,
          "name": "D#4",
          "ticks": 34560,
          "time": 1.40625,
          "velocity": 0.9921259842519685
        },
        {
          "duration": 0.078125,
          "durationTicks": 1920,
          "midi": 63,
          "name": "D#4",
          "ticks": 42240,
          "time": 1.71875,
          "velocity": 0.9921259842519685
        },
        {
          "duration": 0.15625,
          "durationTicks": 3840,
          "midi": 63,
          "name": "D#4",
          "ticks": 46080,
          "time": 1.875,
          "velocity": 0.9133858267716536
        },
        {
          "duration": 0.078125,
          "durationTicks": 1920,
          "midi": 60,
          "name": "C4",
          "ticks": 57600,
          "time": 2.34375,
          "velocity": 0.9921259842519685
        },
        {
          "duration": 0.078125,
          "durationTicks": 1920,
          "midi": 67,
          "name": "G4",
          "ticks": 61440,
          "time": 2.5,
          "velocity": 0.9921259842519685
        },
        {
          "duration": 0.234375,
          "durationTicks": 5760,
          "midi": 67,
          "name": "G4",
          "ticks": 65280,
          "time": 2.65625,
          "velocity": 0.9921259842519685
        },
        {
          "duration": 0.234375,
          "durationTicks": 5760,
          "midi": 67,
          "name": "G4",
          "ticks": 72960,
          "time": 2.96875,
          "velocity": 0.9921259842519685
        },
        {
          "duration": 0.078125,
          "durationTicks": 1920,
          "midi": 67,
          "name": "G4",
          "ticks": 80640,
          "time": 3.28125,
          "velocity": 0.9921259842519685
        },
        {
          "duration": 0.078125,
          "durationTicks": 1920,
          "midi": 67,
          "name": "G4",
          "ticks": 84480,
          "time": 3.4375,
          "velocity": 0.9921259842519685
        },
        {
          "duration": 0.078125,
          "durationTicks": 1920,
          "midi": 67,
          "name": "G4",
          "ticks": 88320,
          "time": 3.59375,
          "velocity": 0.9921259842519685
        },
        {
          "duration": 0.15625,
          "durationTicks": 3840,
          "midi": 60,
          "name": "C4",
          "ticks": 96000,
          "time": 3.90625,
          "velocity": 0.9921259842519685
        },
        {
          "duration": 0.078125,
          "durationTicks": 1920,
          "midi": 60,
          "name": "C4",
          "ticks": 103680,
          "time": 4.21875,
          "velocity": 0.9921259842519685
        },
        {
          "duration": 0.078125,
          "durationTicks": 1920,
          "midi": 60,
          "name": "C4",
          "ticks": 107520,
          "time": 4.375,
          "velocity": 0.9921259842519685
        },
        {
          "duration": 0.078125,
          "durationTicks": 1920,
          "midi": 61,
          "name": "C#4",
          "ticks": 119040,
          "time": 4.84375,
          "velocity": 0.9921259842519685
        },
        {
          "duration": 0.234375,
          "durationTicks": 5760,
          "midi": 63,
          "name": "D#4",
          "ticks": 122880,
          "time": 5,
          "velocity": 0.9921259842519685
        },
        {
          "duration": 0.078125,
          "durationTicks": 1920,
          "midi": 63,
          "name": "D#4",
          "ticks": 130560,
          "time": 5.3125,
          "velocity": 0.9921259842519685
        },
        {
          "duration": 0.078125,
          "durationTicks": 1920,
          "midi": 63,
          "name": "D#4",
          "ticks": 134400,
          "time": 5.46875,
          "velocity": 0.9921259842519685
        },
        {
          "duration": 0.078125,
          "durationTicks": 1920,
          "midi": 63,
          "name": "D#4",
          "ticks": 138240,
          "time": 5.625,
          "velocity": 0.9921259842519685
        },
        {
          "duration": 0.078125,
          "durationTicks": 1920,
          "midi": 63,
          "name": "D#4",
          "ticks": 142080,
          "time": 5.78125,
          "velocity": 0.9921259842519685
        },
        {
          "duration": 0.078125,
          "durationTicks": 1920,
          "midi": 63,
          "name": "D#4",
          "ticks": 145920,
          "time": 5.9375,
          "velocity": 0.9921259842519685
        },
        {
          "duration": 0.15625,
          "durationTicks": 3840,
          "midi": 63,
          "name": "D#4",
          "ticks": 149760,
          "time": 6.09375,
          "velocity": 0.9921259842519685
        },
        {
          "duration": 0.234375,
          "durationTicks": 5760,
          "midi": 63,
          "name": "D#4",
          "ticks": 157440,
          "time": 6.40625,
          "velocity": 0.9921259842519685
        },
        {
          "duration": 0.078125,
          "durationTicks": 1920,
          "midi": 63,
          "name": "D#4",
          "ticks": 165120,
          "time": 6.71875,
          "velocity": 0.9921259842519685
        },
        {
          "duration": 0.078125,
          "durationTicks": 1920,
          "midi": 63,
          "name": "D#4",
          "ticks": 168960,
          "time": 6.875,
          "velocity": 0.9921259842519685
        },
        {
          "duration": 0.078125,
          "durationTicks": 1920,
          "midi": 60,
          "name": "C4",
          "ticks": 180480,
          "time": 7.34375,
          "velocity": 0.9921259842519685
        },
        {
          "duration": 0.078125,
          "durationTicks": 1920,
          "midi": 60,
          "name": "C4",
          "ticks": 184320,
          "time": 7.5,
          "velocity": 0.9921259842519685
        },
        {
          "duration": 0.078125,
          "durationTicks": 1920,
          "midi": 60,
          "name": "C4",
          "ticks": 188160,
          "time": 7.65625,
          "velocity": 0.9921259842519685
        },
        {
          "duration": 0.078125,
          "durationTicks": 1920,
          "midi": 60,
          "name": "C4",
          "ticks": 192000,
          "time": 7.8125,
          "velocity": 0.9921259842519685
        },
        {
          "duration": 0.234375,
          "durationTicks": 5760,
          "midi": 60,
          "name": "C4",
          "ticks": 195840,
          "time": 7.96875,
          "velocity": 0.9921259842519685
        },
        {
          "duration": 0.078125,
          "durationTicks": 1920,
          "midi": 60,
          "name": "C4",
          "ticks": 203520,
          "time": 8.28125,
          "velocity": 0.9921259842519685
        },
        {
          "duration": 0.078125,
          "durationTicks": 1920,
          "midi": 60,
          "name": "C4",
          "ticks": 207360,
          "time": 8.4375,
          "velocity": 0.9921259842519685
        },
        {
          "duration": 0.078125,
          "durationTicks": 1920,
          "midi": 60,
          "name": "C4",
          "ticks": 211200,
          "time": 8.59375,
          "velocity": 0.9921259842519685
        },
        {
          "duration": 0.078125,
          "durationTicks": 1920,
          "midi": 60,
          "name": "C4",
          "ticks": 215040,
          "time": 8.75,
          "velocity": 0.9921259842519685
        },
        {
          "duration": 0.078125,
          "durationTicks": 1920,
          "midi": 61,
          "name": "C#4",
          "ticks": 218880,
          "time": 8.90625,
          "velocity": 0.9921259842519685
        },
        {
          "duration": 0.078125,
          "durationTicks": 1920,
          "midi": 61,
          "name": "C#4",
          "ticks": 226560,
          "time": 9.21875,
          "velocity": 0.9921259842519685
        },
        {
          "duration": 0.078125,
          "durationTicks": 1920,
          "midi": 61,
          "name": "C#4",
          "ticks": 230400,
          "time": 9.375,
          "velocity": 0.9921259842519685
        },
        {
          "duration": 0.078125,
          "durationTicks": 1920,
          "midi": 60,
          "name": "C4",
          "ticks": 241920,
          "time": 9.84375,
          "velocity": 0.9921259842519685
        },
        {
          "duration": 0.546875,
          "durationTicks": 13440,
          "midi": 60,
          "name": "C4",
          "ticks": 245760,
          "time": 10,
          "velocity": 0.9921259842519685
        },
        {
          "duration": 0.546875,
          "durationTicks": 13440,
          "midi": 60,
          "name": "C4",
          "ticks": 261120,
          "time": 10.625,
          "velocity": 0.9921259842519685
        },
        {
          "duration": 0.46875,
          "durationTicks": 11520,
          "midi": 60,
          "name": "C4",
          "ticks": 276480,
          "time": 11.25,
          "velocity": 0.9921259842519685
        },
        {
          "duration": 0.15625,
          "durationTicks": 3840,
          "midi": 58,
          "name": "A#3",
          "ticks": 291840,
          "time": 11.875,
          "velocity": 0.9921259842519685
        },
        {
          "duration": 0.15625,
          "durationTicks": 3840,
          "midi": 60,
          "name": "C4",
          "ticks": 299520,
          "time": 12.1875,
          "velocity": 0.9921259842519685
        },
        {
          "duration": 0.234375,
          "durationTicks": 5760,
          "midi": 66,
          "name": "F#4",
          "ticks": 307200,
          "time": 12.5,
          "velocity": 0.9921259842519685
        },
        {
          "duration": 0.703125,
          "durationTicks": 17280,
          "midi": 66,
          "name": "F#4",
          "ticks": 314880,
          "time": 12.8125,
          "velocity": 0.9921259842519685
        },
        {
          "duration": 0.15625,
          "durationTicks": 3840,
          "midi": 66,
          "name": "F#4",
          "ticks": 334080,
          "time": 13.59375,
          "velocity": 0.9921259842519685
        },
        {
          "duration": 0.15625,
          "durationTicks": 3840,
          "midi": 60,
          "name": "C4",
          "ticks": 345600,
          "time": 14.0625,
          "velocity": 0.9921259842519685
        },
        {
          "duration": 0.15625,
          "durationTicks": 3840,
          "midi": 60,
          "name": "C4",
          "ticks": 353280,
          "time": 14.375,
          "velocity": 0.9921259842519685
        },
        {
          "duration": 0.46875,
          "durationTicks": 11520,
          "midi": 60,
          "name": "C4",
          "ticks": 368640,
          "time": 15,
          "velocity": 0.9606299212598425
        },
        {
          "duration": 0.46875,
          "durationTicks": 11520,
          "midi": 60,
          "name": "C4",
          "ticks": 384000,
          "time": 15.625,
          "velocity": 0.9921259842519685
        },
        {
          "duration": 0.46875,
          "durationTicks": 11520,
          "midi": 60,
          "name": "C4",
          "ticks": 399360,
          "time": 16.25,
          "velocity": 0.9921259842519685
        },
        {
          "duration": 0.15625,
          "durationTicks": 3840,
          "midi": 62,
          "name": "D4",
          "ticks": 414720,
          "time": 16.875,
          "velocity": 0.9921259842519685
        },
        {
          "duration": 0.234375,
          "durationTicks": 5760,
          "midi": 60,
          "name": "C4",
          "ticks": 422400,
          "time": 17.1875,
          "velocity": 0.9921259842519685
        },
        {
          "duration": 0.234375,
          "durationTicks": 5760,
          "midi": 60,
          "name": "C4",
          "ticks": 430080,
          "time": 17.5,
          "velocity": 0.9921259842519685
        },
        {
          "duration": 0.078125,
          "durationTicks": 1920,
          "midi": 66,
          "name": "F#4",
          "ticks": 433920,
          "time": 17.65625,
          "velocity": 0.9921259842519685
        },
        {
          "duration": 0.546875,
          "durationTicks": 13440,
          "midi": 67,
          "name": "G4",
          "ticks": 437760,
          "time": 17.8125,
          "velocity": 0.9921259842519685
        },
        {
          "duration": 0.390625,
          "durationTicks": 9600,
          "midi": 68,
          "name": "G#4",
          "ticks": 441600,
          "time": 17.96875,
          "velocity": 0.9921259842519685
        },
        {
          "duration": 0.234375,
          "durationTicks": 5760,
          "midi": 69,
          "name": "A4",
          "ticks": 445440,
          "time": 18.125,
          "velocity": 0.9921259842519685
        },
        {
          "duration": 0.3125,
          "durationTicks": 7680,
          "midi": 69,
          "name": "A4",
          "ticks": 453120,
          "time": 18.4375,
          "velocity": 0.9921259842519685
        },
        {
          "duration": 0.15625,
          "durationTicks": 3840,
          "midi": 62,
          "name": "D4",
          "ticks": 456960,
          "time": 18.59375,
          "velocity": 0.9921259842519685
        },
        {
          "duration": 0.15625,
          "durationTicks": 3840,
          "midi": 62,
          "name": "D4",
          "ticks": 468480,
          "time": 19.0625,
          "velocity": 0.9921259842519685
        },
        {
          "duration": 0.078125,
          "durationTicks": 1920,
          "midi": 60,
          "name": "C4",
          "ticks": 476160,
          "time": 19.375,
          "velocity": 0.9921259842519685
        },
        {
          "duration": 0.234375,
          "durationTicks": 5760,
          "midi": 63,
          "name": "D#4",
          "ticks": 491520,
          "time": 20,
          "velocity": 0.9921259842519685
        },
        {
          "duration": 0.234375,
          "durationTicks": 5760,
          "midi": 63,
          "name": "D#4",
          "ticks": 499200,
          "time": 20.3125,
          "velocity": 0.9921259842519685
        },
        {
          "duration": 0.234375,
          "durationTicks": 5760,
          "midi": 63,
          "name": "D#4",
          "ticks": 506880,
          "time": 20.625,
          "velocity": 0.9921259842519685
        },
        {
          "duration": 0.078125,
          "durationTicks": 1920,
          "midi": 63,
          "name": "D#4",
          "ticks": 514560,
          "time": 20.9375,
          "velocity": 0.9921259842519685
        },
        {
          "duration": 0.15625,
          "durationTicks": 3840,
          "midi": 63,
          "name": "D#4",
          "ticks": 518400,
          "time": 21.09375,
          "velocity": 0.9921259842519685
        },
        {
          "duration": 0.234375,
          "durationTicks": 5760,
          "midi": 63,
          "name": "D#4",
          "ticks": 526080,
          "time": 21.40625,
          "velocity": 0.9921259842519685
        },
        {
          "duration": 0.078125,
          "durationTicks": 1920,
          "midi": 63,
          "name": "D#4",
          "ticks": 533760,
          "time": 21.71875,
          "velocity": 0.9921259842519685
        },
        {
          "duration": 0.15625,
          "durationTicks": 3840,
          "midi": 63,
          "name": "D#4",
          "ticks": 537600,
          "time": 21.875,
          "velocity": 0.9133858267716536
        },
        {
          "duration": 0.078125,
          "durationTicks": 1920,
          "midi": 60,
          "name": "C4",
          "ticks": 549120,
          "time": 22.34375,
          "velocity": 0.9921259842519685
        },
        {
          "duration": 0.078125,
          "durationTicks": 1920,
          "midi": 67,
          "name": "G4",
          "ticks": 552960,
          "time": 22.5,
          "velocity": 0.9921259842519685
        },
        {
          "duration": 0.234375,
          "durationTicks": 5760,
          "midi": 67,
          "name": "G4",
          "ticks": 556800,
          "time": 22.65625,
          "velocity": 0.9921259842519685
        },
        {
          "duration": 0.234375,
          "durationTicks": 5760,
          "midi": 67,
          "name": "G4",
          "ticks": 564480,
          "time": 22.96875,
          "velocity": 0.9921259842519685
        },
        {
          "duration": 0.078125,
          "durationTicks": 1920,
          "midi": 67,
          "name": "G4",
          "ticks": 572160,
          "time": 23.28125,
          "velocity": 0.9921259842519685
        },
        {
          "duration": 0.078125,
          "durationTicks": 1920,
          "midi": 67,
          "name": "G4",
          "ticks": 576000,
          "time": 23.4375,
          "velocity": 0.9921259842519685
        },
        {
          "duration": 0.078125,
          "durationTicks": 1920,
          "midi": 67,
          "name": "G4",
          "ticks": 579840,
          "time": 23.59375,
          "velocity": 0.9921259842519685
        },
        {
          "duration": 0.15625,
          "durationTicks": 3840,
          "midi": 60,
          "name": "C4",
          "ticks": 587520,
          "time": 23.90625,
          "velocity": 0.9921259842519685
        },
        {
          "duration": 0.078125,
          "durationTicks": 1920,
          "midi": 60,
          "name": "C4",
          "ticks": 595200,
          "time": 24.21875,
          "velocity": 0.9921259842519685
        },
        {
          "duration": 0.078125,
          "durationTicks": 1920,
          "midi": 60,
          "name": "C4",
          "ticks": 599040,
          "time": 24.375,
          "velocity": 0.9921259842519685
        },
        {
          "duration": 0.078125,
          "durationTicks": 1920,
          "midi": 61,
          "name": "C#4",
          "ticks": 610560,
          "time": 24.84375,
          "velocity": 0.9921259842519685
        },
        {
          "duration": 0.234375,
          "durationTicks": 5760,
          "midi": 63,
          "name": "D#4",
          "ticks": 614400,
          "time": 25,
          "velocity": 0.9921259842519685
        },
        {
          "duration": 0.078125,
          "durationTicks": 1920,
          "midi": 63,
          "name": "D#4",
          "ticks": 622080,
          "time": 25.3125,
          "velocity": 0.9921259842519685
        },
        {
          "duration": 0.078125,
          "durationTicks": 1920,
          "midi": 63,
          "name": "D#4",
          "ticks": 625920,
          "time": 25.46875,
          "velocity": 0.9921259842519685
        },
        {
          "duration": 0.078125,
          "durationTicks": 1920,
          "midi": 63,
          "name": "D#4",
          "ticks": 629760,
          "time": 25.625,
          "velocity": 0.9921259842519685
        },
        {
          "duration": 0.078125,
          "durationTicks": 1920,
          "midi": 63,
          "name": "D#4",
          "ticks": 633600,
          "time": 25.78125,
          "velocity": 0.9921259842519685
        },
        {
          "duration": 0.078125,
          "durationTicks": 1920,
          "midi": 63,
          "name": "D#4",
          "ticks": 637440,
          "time": 25.9375,
          "velocity": 0.9921259842519685
        },
        {
          "duration": 0.15625,
          "durationTicks": 3840,
          "midi": 63,
          "name": "D#4",
          "ticks": 641280,
          "time": 26.09375,
          "velocity": 0.9921259842519685
        },
        {
          "duration": 0.234375,
          "durationTicks": 5760,
          "midi": 63,
          "name": "D#4",
          "ticks": 648960,
          "time": 26.40625,
          "velocity": 0.9921259842519685
        },
        {
          "duration": 0.078125,
          "durationTicks": 1920,
          "midi": 63,
          "name": "D#4",
          "ticks": 656640,
          "time": 26.71875,
          "velocity": 0.9921259842519685
        },
        {
          "duration": 0.078125,
          "durationTicks": 1920,
          "midi": 63,
          "name": "D#4",
          "ticks": 660480,
          "time": 26.875,
          "velocity": 0.9921259842519685
        },
        {
          "duration": 0.078125,
          "durationTicks": 1920,
          "midi": 60,
          "name": "C4",
          "ticks": 672000,
          "time": 27.34375,
          "velocity": 0.9921259842519685
        },
        {
          "duration": 0.078125,
          "durationTicks": 1920,
          "midi": 60,
          "name": "C4",
          "ticks": 675840,
          "time": 27.5,
          "velocity": 0.9921259842519685
        },
        {
          "duration": 0.078125,
          "durationTicks": 1920,
          "midi": 60,
          "name": "C4",
          "ticks": 679680,
          "time": 27.65625,
          "velocity": 0.9921259842519685
        },
        {
          "duration": 0.078125,
          "durationTicks": 1920,
          "midi": 60,
          "name": "C4",
          "ticks": 683520,
          "time": 27.8125,
          "velocity": 0.9921259842519685
        },
        {
          "duration": 0.234375,
          "durationTicks": 5760,
          "midi": 60,
          "name": "C4",
          "ticks": 687360,
          "time": 27.96875,
          "velocity": 0.9921259842519685
        },
        {
          "duration": 0.078125,
          "durationTicks": 1920,
          "midi": 60,
          "name": "C4",
          "ticks": 695040,
          "time": 28.28125,
          "velocity": 0.9921259842519685
        },
        {
          "duration": 0.078125,
          "durationTicks": 1920,
          "midi": 60,
          "name": "C4",
          "ticks": 698880,
          "time": 28.4375,
          "velocity": 0.9921259842519685
        },
        {
          "duration": 0.078125,
          "durationTicks": 1920,
          "midi": 60,
          "name": "C4",
          "ticks": 702720,
          "time": 28.59375,
          "velocity": 0.9921259842519685
        },
        {
          "duration": 0.078125,
          "durationTicks": 1920,
          "midi": 60,
          "name": "C4",
          "ticks": 706560,
          "time": 28.75,
          "velocity": 0.9921259842519685
        },
        {
          "duration": 0.078125,
          "durationTicks": 1920,
          "midi": 61,
          "name": "C#4",
          "ticks": 710400,
          "time": 28.90625,
          "velocity": 0.9921259842519685
        },
        {
          "duration": 0.078125,
          "durationTicks": 1920,
          "midi": 61,
          "name": "C#4",
          "ticks": 718080,
          "time": 29.21875,
          "velocity": 0.9921259842519685
        },
        {
          "duration": 0.078125,
          "durationTicks": 1920,
          "midi": 61,
          "name": "C#4",
          "ticks": 721920,
          "time": 29.375,
          "velocity": 0.9921259842519685
        },
        {
          "duration": 0.078125,
          "durationTicks": 1920,
          "midi": 60,
          "name": "C4",
          "ticks": 733440,
          "time": 29.84375,
          "velocity": 0.9921259842519685
        },
        {
          "duration": 0.546875,
          "durationTicks": 13440,
          "midi": 60,
          "name": "C4",
          "ticks": 737280,
          "time": 30,
          "velocity": 0.9921259842519685
        },
        {
          "duration": 0.546875,
          "durationTicks": 13440,
          "midi": 60,
          "name": "C4",
          "ticks": 752640,
          "time": 30.625,
          "velocity": 0.9921259842519685
        },
        {
          "duration": 0.46875,
          "durationTicks": 11520,
          "midi": 60,
          "name": "C4",
          "ticks": 768000,
          "time": 31.25,
          "velocity": 0.9921259842519685
        },
        {
          "duration": 0.15625,
          "durationTicks": 3840,
          "midi": 58,
          "name": "A#3",
          "ticks": 783360,
          "time": 31.875,
          "velocity": 0.9921259842519685
        },
        {
          "duration": 0.15625,
          "durationTicks": 3840,
          "midi": 60,
          "name": "C4",
          "ticks": 791040,
          "time": 32.1875,
          "velocity": 0.9921259842519685
        },
        {
          "duration": 0.234375,
          "durationTicks": 5760,
          "midi": 66,
          "name": "F#4",
          "ticks": 798720,
          "time": 32.5,
          "velocity": 0.9921259842519685
        },
        {
          "duration": 0.703125,
          "durationTicks": 17280,
          "midi": 66,
          "name": "F#4",
          "ticks": 806400,
          "time": 32.8125,
          "velocity": 0.9921259842519685
        },
        {
          "duration": 0.15625,
          "durationTicks": 3840,
          "midi": 66,
          "name": "F#4",
          "ticks": 825600,
          "time": 33.59375,
          "velocity": 0.9921259842519685
        },
        {
          "duration": 0.15625,
          "durationTicks": 3840,
          "midi": 60,
          "name": "C4",
          "ticks": 837120,
          "time": 34.0625,
          "velocity": 0.9921259842519685
        },
        {
          "duration": 0.15625,
          "durationTicks": 3840,
          "midi": 60,
          "name": "C4",
          "ticks": 844800,
          "time": 34.375,
          "velocity": 0.9921259842519685
        },
        {
          "duration": 0.46875,
          "durationTicks": 11520,
          "midi": 60,
          "name": "C4",
          "ticks": 860160,
          "time": 35,
          "velocity": 0.9606299212598425
        },
        {
          "duration": 0.46875,
          "durationTicks": 11520,
          "midi": 60,
          "name": "C4",
          "ticks": 875520,
          "time": 35.625,
          "velocity": 0.9921259842519685
        },
        {
          "duration": 0.46875,
          "durationTicks": 11520,
          "midi": 60,
          "name": "C4",
          "ticks": 890880,
          "time": 36.25,
          "velocity": 0.9921259842519685
        },
        {
          "duration": 0.15625,
          "durationTicks": 3840,
          "midi": 62,
          "name": "D4",
          "ticks": 906240,
          "time": 36.875,
          "velocity": 0.9921259842519685
        },
        {
          "duration": 0.234375,
          "durationTicks": 5760,
          "midi": 60,
          "name": "C4",
          "ticks": 913920,
          "time": 37.1875,
          "velocity": 0.9921259842519685
        },
        {
          "duration": 0.234375,
          "durationTicks": 5760,
          "midi": 60,
          "name": "C4",
          "ticks": 921600,
          "time": 37.5,
          "velocity": 0.9921259842519685
        },
        {
          "duration": 0.078125,
          "durationTicks": 1920,
          "midi": 66,
          "name": "F#4",
          "ticks": 925440,
          "time": 37.65625,
          "velocity": 0.9921259842519685
        },
        {
          "duration": 0.546875,
          "durationTicks": 13440,
          "midi": 67,
          "name": "G4",
          "ticks": 929280,
          "time": 37.8125,
          "velocity": 0.9921259842519685
        },
        {
          "duration": 0.390625,
          "durationTicks": 9600,
          "midi": 68,
          "name": "G#4",
          "ticks": 933120,
          "time": 37.96875,
          "velocity": 0.9921259842519685
        },
        {
          "duration": 0.234375,
          "durationTicks": 5760,
          "midi": 69,
          "name": "A4",
          "ticks": 936960,
          "time": 38.125,
          "velocity": 0.9921259842519685
        },
        {
          "duration": 0.3125,
          "durationTicks": 7680,
          "midi": 69,
          "name": "A4",
          "ticks": 944640,
          "time": 38.4375,
          "velocity": 0.9921259842519685
        },
        {
          "duration": 0.15625,
          "durationTicks": 3840,
          "midi": 62,
          "name": "D4",
          "ticks": 948480,
          "time": 38.59375,
          "velocity": 0.9921259842519685
        },
        {
          "duration": 0.15625,
          "durationTicks": 3840,
          "midi": 62,
          "name": "D4",
          "ticks": 960000,
          "time": 39.0625,
          "velocity": 0.9921259842519685
        },
        {
          "duration": 0.078125,
          "durationTicks": 1920,
          "midi": 60,
          "name": "C4",
          "ticks": 967680,
          "time": 39.375,
          "velocity": 0.9921259842519685
        },
        {
          "duration": 0.234375,
          "durationTicks": 5760,
          "midi": 63,
          "name": "D#4",
          "ticks": 983040,
          "time": 40,
          "velocity": 0.9921259842519685
        },
        {
          "duration": 0.234375,
          "durationTicks": 5760,
          "midi": 63,
          "name": "D#4",
          "ticks": 990720,
          "time": 40.3125,
          "velocity": 0.9921259842519685
        },
        {
          "duration": 0.234375,
          "durationTicks": 5760,
          "midi": 63,
          "name": "D#4",
          "ticks": 998400,
          "time": 40.625,
          "velocity": 0.9921259842519685
        },
        {
          "duration": 0.078125,
          "durationTicks": 1920,
          "midi": 63,
          "name": "D#4",
          "ticks": 1006080,
          "time": 40.9375,
          "velocity": 0.9921259842519685
        },
        {
          "duration": 0.15625,
          "durationTicks": 3840,
          "midi": 63,
          "name": "D#4",
          "ticks": 1009920,
          "time": 41.09375,
          "velocity": 0.9921259842519685
        },
        {
          "duration": 0.234375,
          "durationTicks": 5760,
          "midi": 63,
          "name": "D#4",
          "ticks": 1017600,
          "time": 41.40625,
          "velocity": 0.9921259842519685
        },
        {
          "duration": 0.078125,
          "durationTicks": 1920,
          "midi": 63,
          "name": "D#4",
          "ticks": 1025280,
          "time": 41.71875,
          "velocity": 0.9921259842519685
        },
        {
          "duration": 0.15625,
          "durationTicks": 3840,
          "midi": 63,
          "name": "D#4",
          "ticks": 1029120,
          "time": 41.875,
          "velocity": 0.9133858267716536
        },
        {
          "duration": 0.078125,
          "durationTicks": 1920,
          "midi": 60,
          "name": "C4",
          "ticks": 1040640,
          "time": 42.34375,
          "velocity": 0.9921259842519685
        },
        {
          "duration": 0.078125,
          "durationTicks": 1920,
          "midi": 67,
          "name": "G4",
          "ticks": 1044480,
          "time": 42.5,
          "velocity": 0.9921259842519685
        },
        {
          "duration": 0.234375,
          "durationTicks": 5760,
          "midi": 67,
          "name": "G4",
          "ticks": 1048320,
          "time": 42.65625,
          "velocity": 0.9921259842519685
        },
        {
          "duration": 0.234375,
          "durationTicks": 5760,
          "midi": 67,
          "name": "G4",
          "ticks": 1056000,
          "time": 42.96875,
          "velocity": 0.9921259842519685
        },
        {
          "duration": 0.078125,
          "durationTicks": 1920,
          "midi": 67,
          "name": "G4",
          "ticks": 1063680,
          "time": 43.28125,
          "velocity": 0.9921259842519685
        },
        {
          "duration": 0.078125,
          "durationTicks": 1920,
          "midi": 67,
          "name": "G4",
          "ticks": 1067520,
          "time": 43.4375,
          "velocity": 0.9921259842519685
        },
        {
          "duration": 0.078125,
          "durationTicks": 1920,
          "midi": 67,
          "name": "G4",
          "ticks": 1071360,
          "time": 43.59375,
          "velocity": 0.9921259842519685
        },
        {
          "duration": 0.15625,
          "durationTicks": 3840,
          "midi": 60,
          "name": "C4",
          "ticks": 1079040,
          "time": 43.90625,
          "velocity": 0.9921259842519685
        },
        {
          "duration": 0.078125,
          "durationTicks": 1920,
          "midi": 60,
          "name": "C4",
          "ticks": 1086720,
          "time": 44.21875,
          "velocity": 0.9921259842519685
        },
        {
          "duration": 0.078125,
          "durationTicks": 1920,
          "midi": 60,
          "name": "C4",
          "ticks": 1090560,
          "time": 44.375,
          "velocity": 0.9921259842519685
        },
        {
          "duration": 0.078125,
          "durationTicks": 1920,
          "midi": 61,
          "name": "C#4",
          "ticks": 1102080,
          "time": 44.84375,
          "velocity": 0.9921259842519685
        },
        {
          "duration": 0.234375,
          "durationTicks": 5760,
          "midi": 63,
          "name": "D#4",
          "ticks": 1105920,
          "time": 45,
          "velocity": 0.9921259842519685
        },
        {
          "duration": 0.078125,
          "durationTicks": 1920,
          "midi": 63,
          "name": "D#4",
          "ticks": 1113600,
          "time": 45.3125,
          "velocity": 0.9921259842519685
        },
        {
          "duration": 0.078125,
          "durationTicks": 1920,
          "midi": 63,
          "name": "D#4",
          "ticks": 1117440,
          "time": 45.46875,
          "velocity": 0.9921259842519685
        },
        {
          "duration": 0.078125,
          "durationTicks": 1920,
          "midi": 63,
          "name": "D#4",
          "ticks": 1121280,
          "time": 45.625,
          "velocity": 0.9921259842519685
        },
        {
          "duration": 0.078125,
          "durationTicks": 1920,
          "midi": 63,
          "name": "D#4",
          "ticks": 1125120,
          "time": 45.78125,
          "velocity": 0.9921259842519685
        },
        {
          "duration": 0.078125,
          "durationTicks": 1920,
          "midi": 63,
          "name": "D#4",
          "ticks": 1128960,
          "time": 45.9375,
          "velocity": 0.9921259842519685
        },
        {
          "duration": 0.15625,
          "durationTicks": 3840,
          "midi": 63,
          "name": "D#4",
          "ticks": 1132800,
          "time": 46.09375,
          "velocity": 0.9921259842519685
        },
        {
          "duration": 0.234375,
          "durationTicks": 5760,
          "midi": 63,
          "name": "D#4",
          "ticks": 1140480,
          "time": 46.40625,
          "velocity": 0.9921259842519685
        },
        {
          "duration": 0.078125,
          "durationTicks": 1920,
          "midi": 63,
          "name": "D#4",
          "ticks": 1148160,
          "time": 46.71875,
          "velocity": 0.9921259842519685
        },
        {
          "duration": 0.078125,
          "durationTicks": 1920,
          "midi": 63,
          "name": "D#4",
          "ticks": 1152000,
          "time": 46.875,
          "velocity": 0.9921259842519685
        },
        {
          "duration": 0.078125,
          "durationTicks": 1920,
          "midi": 60,
          "name": "C4",
          "ticks": 1163520,
          "time": 47.34375,
          "velocity": 0.9921259842519685
        },
        {
          "duration": 0.078125,
          "durationTicks": 1920,
          "midi": 60,
          "name": "C4",
          "ticks": 1167360,
          "time": 47.5,
          "velocity": 0.9921259842519685
        },
        {
          "duration": 0.078125,
          "durationTicks": 1920,
          "midi": 60,
          "name": "C4",
          "ticks": 1171200,
          "time": 47.65625,
          "velocity": 0.9921259842519685
        },
        {
          "duration": 0.078125,
          "durationTicks": 1920,
          "midi": 60,
          "name": "C4",
          "ticks": 1175040,
          "time": 47.8125,
          "velocity": 0.9921259842519685
        },
        {
          "duration": 0.234375,
          "durationTicks": 5760,
          "midi": 60,
          "name": "C4",
          "ticks": 1178880,
          "time": 47.96875,
          "velocity": 0.9921259842519685
        },
        {
          "duration": 0.078125,
          "durationTicks": 1920,
          "midi": 60,
          "name": "C4",
          "ticks": 1186560,
          "time": 48.28125,
          "velocity": 0.9921259842519685
        },
        {
          "duration": 0.078125,
          "durationTicks": 1920,
          "midi": 60,
          "name": "C4",
          "ticks": 1190400,
          "time": 48.4375,
          "velocity": 0.9921259842519685
        },
        {
          "duration": 0.078125,
          "durationTicks": 1920,
          "midi": 60,
          "name": "C4",
          "ticks": 1194240,
          "time": 48.59375,
          "velocity": 0.9921259842519685
        },
        {
          "duration": 0.078125,
          "durationTicks": 1920,
          "midi": 60,
          "name": "C4",
          "ticks": 1198080,
          "time": 48.75,
          "velocity": 0.9921259842519685
        },
        {
          "duration": 0.078125,
          "durationTicks": 1920,
          "midi": 61,
          "name": "C#4",
          "ticks": 1201920,
          "time": 48.90625,
          "velocity": 0.9921259842519685
        },
        {
          "duration": 0.078125,
          "durationTicks": 1920,
          "midi": 61,
          "name": "C#4",
          "ticks": 1209600,
          "time": 49.21875,
          "velocity": 0.9921259842519685
        },
        {
          "duration": 0.078125,
          "durationTicks": 1920,
          "midi": 61,
          "name": "C#4",
          "ticks": 1213440,
          "time": 49.375,
          "velocity": 0.9921259842519685
        },
        {
          "duration": 0.078125,
          "durationTicks": 1920,
          "midi": 60,
          "name": "C4",
          "ticks": 1224960,
          "time": 49.84375,
          "velocity": 0.9921259842519685
        },
        {
          "duration": 0.546875,
          "durationTicks": 13440,
          "midi": 60,
          "name": "C4",
          "ticks": 1228800,
          "time": 50,
          "velocity": 0.9921259842519685
        },
        {
          "duration": 0.546875,
          "durationTicks": 13440,
          "midi": 60,
          "name": "C4",
          "ticks": 1244160,
          "time": 50.625,
          "velocity": 0.9921259842519685
        },
        {
          "duration": 0.46875,
          "durationTicks": 11520,
          "midi": 60,
          "name": "C4",
          "ticks": 1259520,
          "time": 51.25,
          "velocity": 0.9921259842519685
        },
        {
          "duration": 0.15625,
          "durationTicks": 3840,
          "midi": 58,
          "name": "A#3",
          "ticks": 1274880,
          "time": 51.875,
          "velocity": 0.9921259842519685
        },
        {
          "duration": 0.15625,
          "durationTicks": 3840,
          "midi": 60,
          "name": "C4",
          "ticks": 1282560,
          "time": 52.1875,
          "velocity": 0.9921259842519685
        },
        {
          "duration": 0.234375,
          "durationTicks": 5760,
          "midi": 66,
          "name": "F#4",
          "ticks": 1290240,
          "time": 52.5,
          "velocity": 0.9921259842519685
        },
        {
          "duration": 0.703125,
          "durationTicks": 17280,
          "midi": 66,
          "name": "F#4",
          "ticks": 1297920,
          "time": 52.8125,
          "velocity": 0.9921259842519685
        },
        {
          "duration": 0.15625,
          "durationTicks": 3840,
          "midi": 66,
          "name": "F#4",
          "ticks": 1317120,
          "time": 53.59375,
          "velocity": 0.9921259842519685
        },
        {
          "duration": 0.15625,
          "durationTicks": 3840,
          "midi": 60,
          "name": "C4",
          "ticks": 1328640,
          "time": 54.0625,
          "velocity": 0.9921259842519685
        },
        {
          "duration": 0.15625,
          "durationTicks": 3840,
          "midi": 60,
          "name": "C4",
          "ticks": 1336320,
          "time": 54.375,
          "velocity": 0.9921259842519685
        },
        {
          "duration": 0.46875,
          "durationTicks": 11520,
          "midi": 60,
          "name": "C4",
          "ticks": 1351680,
          "time": 55,
          "velocity": 0.9606299212598425
        },
        {
          "duration": 0.46875,
          "durationTicks": 11520,
          "midi": 60,
          "name": "C4",
          "ticks": 1367040,
          "time": 55.625,
          "velocity": 0.9921259842519685
        },
        {
          "duration": 0.46875,
          "durationTicks": 11520,
          "midi": 60,
          "name": "C4",
          "ticks": 1382400,
          "time": 56.25,
          "velocity": 0.9921259842519685
        },
        {
          "duration": 0.15625,
          "durationTicks": 3840,
          "midi": 62,
          "name": "D4",
          "ticks": 1397760,
          "time": 56.875,
          "velocity": 0.9921259842519685
        },
        {
          "duration": 0.234375,
          "durationTicks": 5760,
          "midi": 60,
          "name": "C4",
          "ticks": 1405440,
          "time": 57.1875,
          "velocity": 0.9921259842519685
        },
        {
          "duration": 0.234375,
          "durationTicks": 5760,
          "midi": 60,
          "name": "C4",
          "ticks": 1413120,
          "time": 57.5,
          "velocity": 0.9921259842519685
        },
        {
          "duration": 0.078125,
          "durationTicks": 1920,
          "midi": 66,
          "name": "F#4",
          "ticks": 1416960,
          "time": 57.65625,
          "velocity": 0.9921259842519685
        },
        {
          "duration": 0.546875,
          "durationTicks": 13440,
          "midi": 67,
          "name": "G4",
          "ticks": 1420800,
          "time": 57.8125,
          "velocity": 0.9921259842519685
        },
        {
          "duration": 0.390625,
          "durationTicks": 9600,
          "midi": 68,
          "name": "G#4",
          "ticks": 1424640,
          "time": 57.96875,
          "velocity": 0.9921259842519685
        },
        {
          "duration": 0.234375,
          "durationTicks": 5760,
          "midi": 69,
          "name": "A4",
          "ticks": 1428480,
          "time": 58.125,
          "velocity": 0.9921259842519685
        },
        {
          "duration": 0.3125,
          "durationTicks": 7680,
          "midi": 69,
          "name": "A4",
          "ticks": 1436160,
          "time": 58.4375,
          "velocity": 0.9921259842519685
        },
        {
          "duration": 0.15625,
          "durationTicks": 3840,
          "midi": 62,
          "name": "D4",
          "ticks": 1440000,
          "time": 58.59375,
          "velocity": 0.9921259842519685
        },
        {
          "duration": 0.15625,
          "durationTicks": 3840,
          "midi": 62,
          "name": "D4",
          "ticks": 1451520,
          "time": 59.0625,
          "velocity": 0.9921259842519685
        },
        {
          "duration": 0.078125,
          "durationTicks": 1920,
          "midi": 60,
          "name": "C4",
          "ticks": 1459200,
          "time": 59.375,
          "velocity": 0.9921259842519685
        }
];

export default cueSet1;
